<?xml version="1.0" encoding="UTF-8" standalone="no"?>
<svg
   xmlns:dc="http://purl.org/dc/elements/1.1/"
   xmlns:cc="http://creativecommons.org/ns#"
   xmlns:rdf="http://www.w3.org/1999/02/22-rdf-syntax-ns#"
   xmlns:svg="http://www.w3.org/2000/svg"
   xmlns="http://www.w3.org/2000/svg"
   xmlns:sodipodi="http://sodipodi.sourceforge.net/DTD/sodipodi-0.dtd"
   xmlns:inkscape="http://www.inkscape.org/namespaces/inkscape"
   width="30"
   height="30"
   version="1.1"
   id="svg6"
   sodipodi:docname="Neurophotometrics.svg"
   inkscape:version="0.92.3 (2405546, 2018-03-11)">
  <metadata
     id="metadata12">
    <rdf:RDF>
      <cc:Work
         rdf:about="">
        <dc:format>image/svg+xml</dc:format>
        <dc:type
           rdf:resource="http://purl.org/dc/dcmitype/StillImage" />
        <dc:title />
      </cc:Work>
    </rdf:RDF>
  </metadata>
  <defs
     id="defs10" />
  <sodipodi:namedview
     pagecolor="#ffffff"
     bordercolor="#666666"
     borderopacity="1"
     objecttolerance="10"
     gridtolerance="10"
     guidetolerance="10"
     inkscape:pageopacity="0"
     inkscape:pageshadow="2"
     inkscape:window-width="1920"
     inkscape:window-height="1001"
     id="namedview8"
     showgrid="false"
     inkscape:zoom="22.627417"
     inkscape:cx="18.809779"
     inkscape:cy="20.842629"
     inkscape:window-x="-9"
     inkscape:window-y="-9"
     inkscape:window-maximized="1"
     inkscape:current-layer="svg6" />
  <path
     id="path912"
     d="M 23.842424,9.2202364 11.242367,15.918305 24.59205,10.905312 A 14.272952,14.272952 0 0 0 24.4738,10.567452 14.272952,14.272952 0 0 0 23.874099,9.2730268 14.272952,14.272952 0 0 0 23.84242,9.2202342 Z"
     style="stroke:none;stroke-width:0.07812361"
     inkscape:connector-curvature="0" />
  <path
     id="path903"
     d="M 22.482538,7.1423988 11.242367,15.918305 23.599587,8.8084701 A 14.272952,14.272952 0 0 0 23.1477,8.0461737 14.272952,14.272952 0 0 0 22.482538,7.1423988 Z"
     style="stroke:none;stroke-width:0.07812361"
     inkscape:connector-curvature="0" />
  <path
     id="path921"
     d="m 24.765204,11.403655 -13.522837,4.51465 14.004287,-2.730328 a 14.272952,14.272952 0 0 0 -0.0169,-0.105585 14.272952,14.272952 0 0 0 -0.28718,-1.167728 14.272952,14.272952 0 0 0 -0.177377,-0.511014 z"
     style="stroke:none;stroke-width:0.07812361"
     inkscape:connector-curvature="0" />
  <path
     id="path939"
     d="m 25.500048,16.220268 -14.257681,-0.301963 14.09931,2.101066 a 14.272952,14.272952 0 0 0 0.101358,-0.675719 14.272952,14.272952 0 0 0 0.05701,-1.123384 z"
     style="stroke:none;stroke-width:0.07812361"
     inkscape:connector-curvature="0" />
  <path
     id="path930"
     d="M 25.33323,13.768673 11.242367,15.918305 25.497936,15.572 a 14.272952,14.272952 0 0 0 -0.0549,-1.07904 14.272952,14.272952 0 0 0 -0.109803,-0.724287 z"
     style="stroke:none;stroke-width:0.07812361"
     inkscape:connector-curvature="0" />
  <path
     id="path948"
     d="m 25.255101,18.587397 -14.012734,-2.669092 13.548176,4.455526 a 14.272952,14.272952 0 0 0 0.08658,-0.238614 14.272952,14.272952 0 0 0 0.352641,-1.381002 14.272952,14.272952 0 0 0 0.02534,-0.166818 z"
     style="stroke:none;stroke-width:0.07812361"
     inkscape:connector-curvature="0" />
  <path
     id="path894"
     d="M 22.110891,6.6841766 A 14.272952,14.272952 0 0 0 21.346484,5.8374157 14.272952,14.272952 0 0 0 20.715111,5.2651657 L 11.242367,15.918305 Z"
     style="stroke:none;stroke-width:0.07812361"
     inkscape:connector-curvature="0" />
  <path
     inkscape:connector-curvature="0"
     id="path133"
     style="stroke:none;stroke-width:0.07812361;stroke-miterlimit:10"
     d="m 10.558842,19.985777 c 0.09281,-0.03047 0.128123,-0.139918 0.141169,-0.206168 -0.03758,-0.159764 -0.04211,-0.3539 -0.03578,-0.515849 -0.179919,0.134451 -0.217417,0.176013 -0.43796,0.308978 -0.07461,0.18656 0.04336,0.305931 0.146091,0.409522 0.04586,0.01647 0.111403,0.0282 0.18648,0.0035 z"
     sodipodi:nodetypes="cccccc" />
  <path
     inkscape:connector-curvature="0"
     id="path137"
     style="stroke:none;stroke-width:0.03906181;stroke-miterlimit:10"
     d="m 14.328823,20.006199 -0.01329,-0.01987 c -0.05008,-0.07609 -0.09414,-0.146871 -0.13328,-0.213198 l -0.01235,-0.02066 c -0.0457,-0.0782 -0.08406,-0.149373 -0.116872,-0.214294 l -0.0075,-0.01524 c -0.0318,-0.06367 -0.0582,-0.121094 -0.08015,-0.172187 l -0.0066,-0.01534 c -0.02922,-0.06898 -0.05055,-0.126012 -0.06758,-0.172263 l -0.0065,-0.018 c -0.01702,-0.04594 -0.03187,-0.08531 -0.04305,-0.102108 -0.01008,-0.0121 -0.04078,-0.03164 -0.09023,-0.05414 l -0.01571,-0.0071 c -0.08,-0.03461 -0.204683,-0.07555 -0.374994,-0.110856 l -0.01952,-0.0037 c -0.03891,-0.0078 -0.08031,-0.01524 -0.123906,-0.02234 l -0.01768,-0.0028 c -0.05234,-0.0083 -0.107419,-0.01594 -0.166246,-0.0225 l -0.01973,-0.0022 c -0.03477,-0.0037 -0.07,-0.0074 -0.107028,-0.01055 l -0.02179,-0.0016 c -0.0539,-0.0043 -0.110465,-0.0077 -0.168981,-0.01038 l -0.02044,-8.19e-4 c -0.07094,-0.0029 -0.144139,-0.0049 -0.221794,-0.005 l -4.1e-4,0.001 -0.01694,-0.0012 c -0.0843,-1.58e-4 -0.162576,-0.002 -0.235308,-0.0049 l -0.02126,-8.2e-4 c -0.04781,-0.002 -0.09312,-0.0044 -0.136014,-0.007 l -0.0267,-0.0016 c -0.04476,-0.0027 -0.08703,-0.0056 -0.126479,-0.0083 -0.02555,-0.0018 -0.05,-0.0034 -0.07383,-0.005 l -0.02334,-0.0012 c -0.04711,-0.003 -0.0914,-0.0055 -0.132967,-0.0066 l -0.02372,-4.1e-4 c -0.05789,-0.001 -0.111716,2.05e-4 -0.162809,0.0059 l -0.02891,0.0043 c -0.02297,0.0034 -0.04562,0.0076 -0.06805,0.01288 l -0.02468,0.0061 c -0.06718,0.01835 -0.134059,0.04742 -0.205934,0.09016 l -0.02617,0.01579 c -0.03968,0.02516 -0.08117,0.05437 -0.125387,0.08867 l -0.01766,0.01422 c -0.03523,0.02797 -0.07211,0.05883 -0.111248,0.09328 l -0.0214,0.01843 c -0.03008,0.02641 -0.0625,0.05328 -0.09633,0.08055 -0.01297,0.205855 -0.01446,0.502099 0.06211,0.680769 0.02844,0.06633 0.0518,0.149919 0.07891,0.246636 0.05211,0.185855 0.09992,0.424368 0.258199,0.573191 0.102108,0.04969 0.222261,0.102344 0.350852,0.153904 l 0.04453,0.01766 c 0.111717,0.04375 0.229058,0.08594 0.346868,0.124218 l 0.08478,0.02703 c 0.155388,0.04766 0.308822,0.08664 0.448509,0.111248 l 0.04992,0.0081 c 0.108044,0.01663 0.206868,0.02414 0.289055,0.0178 0.01002,-6.14e-4 0.01938,-0.001 0.02906,-0.0018 l 0.02616,-0.0016 c 0.603113,-0.0275 0.53249,0.281245 1.205212,-0.04641 0.415382,-0.202418 0.3839,-0.706082 0.324175,-1.03158 -0.01317,-0.01917 -0.02535,-0.03769 -0.03769,-0.05629 z"
     sodipodi:nodetypes="ccccccccccccccccccccccccccccccccccccccccccccccccccccccccccccc" />
  <path
     inkscape:connector-curvature="0"
     id="path157"
     style="stroke:none;stroke-width:0.07812361;stroke-miterlimit:10"
     d="m 15.877983,18.050594 -2.03215,-0.673034 c -0.04313,0.06414 -0.095,0.127341 -0.158359,0.187964 -0.272416,0.260229 -0.318351,0.363745 -0.308901,0.404838 0.005,0.02157 0.02688,0.03008 0.05727,0.03984 0.0232,0.0074 0.04945,0.01585 0.04945,0.04086 0,0.05336 0.05445,0.132652 0.09117,0.132652 0.01188,0 0.02484,-10e-4 0.03953,-0.0022 0.04664,-0.0035 0.11039,-0.0084 0.21234,0.01069 0.376714,0.0707 0.631943,0.07125 0.760222,0.0018 0.205935,-0.111561 0.590066,-0.152732 0.67108,-0.107733 0.08789,0.04883 0.06523,0.419915 0.05774,0.449759 -0.0024,0.0095 -0.01086,0.04961 -0.0221,0.102888 -0.03758,0.176716 -0.075,0.351713 -0.0864,0.380229 -0.01749,0.04383 -0.103437,0.524675 -0.03461,0.63163 0.04937,0.0768 0.09906,0.13562 0.1307,0.172496 0.06875,-0.116717 0.163901,-0.265543 0.333901,-0.426322 0.222417,-0.210074 0.09117,-0.236168 0.233433,-0.608113 0.04711,-0.12328 0.09874,-0.195015 0.125389,-0.256403 -2.05e-4,-2.05e-4 -6.15e-4,-4.1e-4 -8.2e-4,-8.19e-4 0.01325,-0.03068 0.190589,-0.36769 0.168899,-0.38558 -0.06563,-0.02969 -0.145063,-0.04973 -0.287707,-0.09534 z"
     sodipodi:nodetypes="cccccssccccccccccccccc" />
  <path
     sodipodi:nodetypes="ccccccccccccccccccccccccccccccccccccccccccccccccccscccccccccccccccccc"
     inkscape:connector-curvature="0"
     d="m 8.6685448,14.76184 c 0.1128104,0.04211 0.2531209,0.101404 0.2810891,0.198512 0.019064,0.06586 -0.014766,0.183044 -0.087108,0.277964 -0.2476519,0.324916 -0.094764,0.768111 -0.00531,0.988107 0.2227307,-0.130545 0.4474914,-0.195543 0.780298,-0.223277 0.3923381,-0.0325 0.6466281,0.01297 0.8323301,0.04625 0.0357,0.0064 0.06687,0.01156 0.09625,0.01617 l 0.558036,-0.674676 0.06953,-0.08414 0.945684,-1.143417 0.07678,-0.09281 0.682487,-0.825142 0.06404,-0.08031 7.7e-5,0.0026 0.623429,-0.753737 c -0.144295,-0.02656 -0.268197,-0.01297 -0.367573,-0.03789 -0.176949,-0.04422 -0.276402,-0.199059 -0.541787,-0.375853 -0.265386,-0.17695 -0.477101,0.0075 -0.6828,0.08008 -0.187887,0.06641 -0.246012,-0.08008 -0.378664,-0.212731 -0.119842,-0.119998 -0.317496,-0.16734 -0.661474,-0.142888 -0.292885,0.163357 -0.291635,0.301714 -0.274214,0.435774 0.0098,0.07508 0.01202,0.19195 -0.03063,0.268824 -0.07101,0.127654 -0.216403,0.151325 -0.334291,0.181794 -0.08984,0.0232 -0.159293,0.05492 -0.229916,0.122341 -0.08297,0.07922 -0.07969,0.113044 -0.084843,0.188434 -0.00461,0.06687 -0.00991,0.173981 -0.07539,0.257417 -0.092186,0.117186 -0.2064016,0.172966 -0.3115573,0.237731 -0.046405,0.02851 -0.071014,0.05804 -0.1233567,0.09539 -0.059061,0.04234 -0.032812,0.06258 0.030234,0.193823 0.060937,0.126795 0.130076,0.325386 0.056405,0.44265 -0.062499,0.09922 -0.2361675,0.127732 -0.4462421,0.160778 -0.2652295,0.04172 -0.5579587,0.07336 -0.6492851,0.269135 -0.019922,0.04289 -0.023984,0.05422 -0.012265,0.08266 0.024765,0.06047 0.1060918,0.06547 0.1999183,0.100466 m -0.05435,0.101184 c -0.1071855,-0.04 -0.2179648,-0.08141 -0.2537452,-0.168669 -0.018828,-0.04594 -0.014219,-0.09953 0.013592,-0.159294 0.094842,-0.203668 0.3597592,-0.265308 0.6614627,-0.315033 0.2314703,-0.03644 0.4071702,-0.0641 0.4535758,-0.137849 0.054218,-0.08617 -0.00383,-0.206949 -0.059999,-0.323901 -0.06164,-0.128357 -0.1254665,-0.261088 -0.016796,-0.338822 0.054139,-0.0389 0.1032012,-0.06891 0.150544,-0.09812 0.099842,-0.06133 0.1859354,-0.114295 0.2707782,-0.222105 0.052889,-0.06742 0.056951,-0.126873 0.061326,-0.18984 0.00539,-0.07781 0.011491,-0.166091 0.113044,-0.262965 0.0832,-0.07937 0.18453,-0.105545 0.282574,-0.130857 0.113904,-0.02953 0.212339,-0.05492 0.269448,-0.157653 0.03211,-0.05773 0.02422,-0.118592 0.01499,-0.189059 -0.01602,-0.123436 -0.03453,-0.271167 0.179845,-0.430226 -0.367175,0.04851 -0.319363,0.192184 -0.9083372,0.18359 -0.3834325,-0.0055 -0.3316366,-0.05758 -0.5970224,-0.05758 -0.265386,0 -0.3842118,0.295776 -0.7742075,0.343861 -0.3117938,0.02887 -0.2905445,-0.03652 -0.5360087,0.0043 -0.2653857,0.0443 -0.087889,0.02687 -0.5307719,0.157654 -1.3765379,0.406321 -1.2852894,0.721393 -1.5921589,1.003341 -0.1348415,0.123983 -0.2581204,0.147732 -0.413274,0.293354 l -0.032198,0.03141 c -0.054218,0.05547 -0.11242,0.126483 -0.1764033,0.222496 -0.2653858,0.39804 -0.4623352,0.719675 -0.5556151,1.053185 -0.1237477,0.442258 -0.17695,1.315758 0.110545,1.481613 0.2233554,0.128826 0.4975692,0.494834 0.7186589,0.507258 0.221168,0.01234 0.8845157,0.41046 1.5037235,0.454601 0.3278064,0.02344 0.5374121,0.05297 0.6642067,0.100231 0.089295,-0.03437 0.1549971,-0.0664 0.1815593,-0.09289 0.023125,-0.0232 0.064218,-0.09617 0.1076545,-0.173668 0.1392941,-0.24781 0.3778057,-0.672176 0.8272506,-0.958343 -0.094607,-0.225933 -0.264214,-0.750143 0.010545,-1.110605 0.05789,-0.07609 0.080936,-0.136716 0.068358,-0.180387 -0.018828,-0.06508 -0.1196855,-0.102655 -0.2171836,-0.13906"
     style="stroke:none;stroke-width:0.07812361;stroke-miterlimit:10"
     id="path161" />
  <path
     inkscape:connector-curvature="0"
     id="path165"
     style="stroke:none;stroke-width:0.07812361;stroke-miterlimit:10"
     d="m 15.146066,19.668771 c -0.08039,-0.124998 0.01835,-0.628582 0.0318,-0.66194 0.01118,-0.0282 0.05906,-0.253669 0.08469,-0.374838 0.01135,-0.05391 0.01999,-0.09445 0.02234,-0.103982 0.0095,-0.0375 0.01891,-0.379056 -0.04172,-0.41265 -0.06453,-0.03586 -0.43796,-0.001 -0.639206,0.107811 -0.203356,0.110389 -0.637959,0.02875 -0.780689,0.002 -0.09914,-0.01852 -0.160387,-0.01397 -0.205074,-0.01055 -0.01555,0.001 -0.02929,0.0023 -0.04203,0.0023 -0.06297,0 -0.124373,-0.104998 -0.124373,-0.165855 -0.0022,-0.0016 -0.01671,-0.0062 -0.0264,-0.0093 -0.02946,-0.0095 -0.06984,-0.02242 -0.07937,-0.06398 -0.01086,-0.04656 0.01047,-0.142419 0.318196,-0.436242 0.05906,-0.05648 0.108201,-0.115154 0.149061,-0.174761 l -0.84639,-0.280309 c -0.147265,0.0037 -0.30648,-0.02641 -0.46304,-0.05633 -0.09867,-0.01876 -0.200857,-0.03828 -0.298666,-0.04914 -0.175857,-0.01922 -0.227495,0.02758 -0.340151,0.130621 -0.02719,0.02485 -0.05711,0.05211 -0.134328,0.115521 -0.07722,0.06341 -0.205185,0.152078 -0.405417,0.246919 -0.5096,0.241403 -0.641552,-0.01125 -0.728816,-0.178357 -0.02758,-0.05289 -0.05367,-0.102888 -0.08422,-0.124684 -0.07812,-0.05586 -0.268512,-0.09445 -0.45179,-0.06258 -0.01446,0.0025 -0.02961,0.0056 -0.04508,0.0094 l -0.0382,0.01063 c -0.1081239,0.03219 -0.232497,0.09726 -0.3239794,0.229371 -0.3024947,0.437024 -1.1127927,0.829361 -1.147167,0.845843 -0.0068,0.0034 -0.014139,0.0049 -0.021483,0.0049 -0.018439,0 -0.036171,-0.01032 -0.044765,-0.0282 -0.012032,-0.02476 -0.00147,-0.05445 0.023281,-0.06632 0.0082,-0.004 0.8208448,-0.397497 1.1084178,-0.812721 0.1357006,-0.19617 0.3316353,-0.266402 0.4720226,-0.290935 0.218902,-0.03789 0.430697,0.01116 0.526476,0.07976 0.05,0.03563 0.08133,0.0957 0.114684,0.159528 0.08609,0.164608 0.174841,0.334995 0.542211,0.154609 0.367374,-0.180389 0.483857,-0.286401 0.570963,-0.36601 0.118906,-0.108826 0.19742,-0.181247 0.418354,-0.15609 0.08648,0.0095 0.66444,0.187964 0.75069,0.204293 l -2.473724,-0.819472 -0.07344,-0.02429 c -0.182184,-0.03265 -0.409055,-0.07094 -0.7656112,-0.04109 -0.074452,0.0063 -0.1442943,0.01727 -0.2121054,0.03047 l -0.1342173,0.03078 C 8.834918,16.393289 8.5361733,16.688988 8.3352395,16.968123 l -0.019537,0.02749 c -0.090233,0.128904 -0.1605441,0.252966 -0.2170273,0.353587 -0.056874,0.101248 -0.097967,0.174452 -0.1404664,0.21687 -0.087264,0.08727 -0.3535875,0.181873 -0.6231137,0.260153 -0.042421,0.119763 0.026249,0.28562 0.3028069,0.382337 0,0 0.1461695,0.155075 0.4227269,0.198278 0.074374,0.151874 0.1492942,0.280622 0.2012466,0.331871 0.059608,0.05882 0.1343723,0.125231 0.2323395,0.191635 0.1230447,-0.01827 0.2129649,-0.07828 0.2888229,-0.12992 0.067811,-0.04601 0.1262479,-0.0857 0.1911685,-0.0857 0.088983,0 0.1185135,-0.03508 0.1591379,-0.08367 0.026093,-0.03102 0.055624,-0.06625 0.1059355,-0.09648 0.022344,-0.01344 0.039374,-0.0268 0.055702,-0.03969 0.07367,-0.05781 0.1222634,-0.09578 0.4869442,-0.0203 0.444523,0.09226 0.550615,0.505614 0.551709,0.509831 0.0021,0.0088 -0.0032,0.0178 -0.01211,0.02009 -0.0012,2.05e-4 -0.0027,4.1e-4 -0.004,4.1e-4 -0.0074,0 -0.01438,-0.0051 -0.01618,-0.01274 -10e-4,-0.0038 -0.102655,-0.397258 -0.5261623,-0.485147 -0.349682,-0.07266 -0.3910094,-0.04 -0.45968,0.01399 -0.016485,0.01282 -0.034921,0.0275 -0.059218,0.04203 -0.045546,0.02726 -0.071874,0.05883 -0.097577,0.08937 -0.041093,0.04906 -0.07992,0.09539 -0.1845279,0.09539 -0.054765,0 -0.1092949,0.03703 -0.172497,0.08 -0.071718,0.04882 -0.1557003,0.104763 -0.2671828,0.12906 0.1878093,0.119059 0.4557731,0.234604 0.8578755,0.301713 -0.021798,0.177809 -0.00109,0.413039 0.2716357,0.376323 0.026641,-0.0036 0.050156,-0.0073 0.071718,-0.01094 0.3768678,-0.217887 0.7663918,-0.464837 1.0049028,-0.676941 0.174372,-0.154997 0.316401,-0.251167 0.448978,-0.309838 0.0061,-0.005 0.01444,-0.0064 0.02166,-0.0095 0.22398,-0.09289 0.424132,-0.07953 0.713035,-0.05961 0.15148,0.01047 0.32312,0.02219 0.541005,0.02219 0.906002,0 1.44732,0.200465 1.542162,0.342882 0.02508,0.0375 0.04289,0.08601 0.06773,0.153125 0.03195,0.08679 0.07625,0.205855 0.157574,0.366397 0.137574,-0.0357 0.432493,-0.128668 0.480536,-0.278664 0.02547,-0.07969 0.04977,-0.140075 0.07141,-0.193436 0.03469,-0.08609 0.06219,-0.154214 0.07726,-0.259915 0.02367,-0.165388 -0.04664,-0.277885 -0.04742,-0.278981 -0.0049,-0.0077 -0.0027,-0.01796 0.0052,-0.02281 0.0077,-0.0052 0.0178,-0.0028 0.02289,0.0049 0.0031,0.0049 0.07766,0.123277 0.05219,0.301477 -0.01563,0.109765 -0.04383,0.17945 -0.07945,0.267808 -0.02117,0.05274 -0.04539,0.112579 -0.07039,0.191093 -0.05258,0.164059 -0.350388,0.260698 -0.496401,0.298978 0.04187,0.08062 0.09187,0.170075 0.155233,0.272103 0.34882,0.132108 0.221794,0.3164 0.661395,0.3164 0.09844,0 0.144529,-0.08461 0.221949,-0.217651 -0.001,-0.0012 -0.0018,-0.0024 -0.0032,-0.0037 -0.0318,-0.03726 -0.08507,-0.09953 -0.137575,-0.181244"
     sodipodi:nodetypes="ccccccccsccccccccccccccccccscccccccccccccccccccccccccsccccccscccccsccccccccccsccccccccccccccscc" />
</svg>
