<?xml version="1.0" encoding="UTF-8"?>
<svg width="30" height="30" version="1.1" xmlns="http://www.w3.org/2000/svg">
 <path d="m23.842 9.2202-12.6 6.6981 13.35-5.013a14.273 14.273 0 0 0-0.11825-0.33786 14.273 14.273 0 0 0-0.5997-1.2944 14.273 14.273 0 0 0-0.031679-0.052793z"/>
 <path d="m22.483 7.1424-11.24 8.7759 12.357-7.1098a14.273 14.273 0 0 0-0.45189-0.7623 14.273 14.273 0 0 0-0.66516-0.90377z"/>
 <path d="m24.765 11.404-13.523 4.5146 14.004-2.7303a14.273 14.273 0 0 0-0.0169-0.10558 14.273 14.273 0 0 0-0.28718-1.1677 14.273 14.273 0 0 0-0.17738-0.51101z"/>
 <path d="m25.5 16.22-14.258-0.30196 14.099 2.1011a14.273 14.273 0 0 0 0.10136-0.67572 14.273 14.273 0 0 0 0.05701-1.1234z"/>
 <path d="m25.333 13.769-14.091 2.1496 14.256-0.3463a14.273 14.273 0 0 0-0.0549-1.079 14.273 14.273 0 0 0-0.1098-0.72429z"/>
 <path d="m25.255 18.587-14.013-2.6691 13.548 4.4555a14.273 14.273 0 0 0 0.08658-0.23861 14.273 14.273 0 0 0 0.35264-1.381 14.273 14.273 0 0 0 0.02534-0.16682z"/>
 <path d="m22.111 6.6842a14.273 14.273 0 0 0-0.76441-0.84676 14.273 14.273 0 0 0-0.63137-0.57225l-9.4727 10.653z"/>
 <path d="m10.559 19.986c0.09281-0.03047 0.12812-0.13992 0.14117-0.20617-0.03758-0.15976-0.04211-0.3539-0.03578-0.51585-0.17992 0.13445-0.21742 0.17601-0.43796 0.30898-0.07461 0.18656 0.04336 0.30593 0.14609 0.40952 0.04586 0.01647 0.1114 0.0282 0.18648 0.0035z"/>
 <path d="m14.329 20.006-0.01329-0.01987c-0.05008-0.07609-0.09414-0.14687-0.13328-0.2132l-0.01235-0.02066c-0.0457-0.0782-0.08406-0.14937-0.11687-0.21429l-0.0075-0.01524c-0.0318-0.06367-0.0582-0.12109-0.08015-0.17219l-0.0066-0.01534c-0.02922-0.06898-0.05055-0.12601-0.06758-0.17226l-0.0065-0.018c-0.01702-0.04594-0.03187-0.08531-0.04305-0.10211-0.01008-0.0121-0.04078-0.03164-0.09023-0.05414l-0.01571-0.0071c-0.08-0.03461-0.20468-0.07555-0.37499-0.11086l-0.01952-0.0037c-0.03891-0.0078-0.08031-0.01524-0.12391-0.02234l-0.01768-0.0028c-0.05234-0.0083-0.10742-0.01594-0.16625-0.0225l-0.01973-0.0022c-0.03477-0.0037-0.07-0.0074-0.10703-0.01055l-0.02179-0.0016c-0.0539-0.0043-0.11046-0.0077-0.16898-0.01038l-0.02044-8.19e-4c-0.07094-0.0029-0.14414-0.0049-0.22179-5e-3l-4.1e-4 1e-3 -0.01694-0.0012c-0.0843-1.58e-4 -0.16258-2e-3 -0.23531-0.0049l-0.02126-8.2e-4c-0.04781-2e-3 -0.09312-0.0044-0.13601-7e-3l-0.0267-0.0016c-0.04476-0.0027-0.08703-0.0056-0.12648-0.0083-0.02555-0.0018-0.05-0.0034-0.07383-5e-3l-0.02334-0.0012c-0.04711-3e-3 -0.0914-0.0055-0.13297-0.0066l-0.02372-4.1e-4c-0.05789-1e-3 -0.11172 2.05e-4 -0.16281 0.0059l-0.02891 0.0043c-0.02297 0.0034-0.04562 0.0076-0.06805 0.01288l-0.02468 0.0061c-0.06718 0.01835-0.13406 0.04742-0.20593 0.09016l-0.02617 0.01579c-0.03968 0.02516-0.08117 0.05437-0.12539 0.08867l-0.01766 0.01422c-0.03523 0.02797-0.07211 0.05883-0.11125 0.09328l-0.0214 0.01843c-0.03008 0.02641-0.0625 0.05328-0.09633 0.08055-0.01297 0.20586-0.01446 0.5021 0.06211 0.68077 0.02844 0.06633 0.0518 0.14992 0.07891 0.24664 0.05211 0.18586 0.09992 0.42437 0.2582 0.57319 0.10211 0.04969 0.22226 0.10234 0.35085 0.1539l0.04453 0.01766c0.11172 0.04375 0.22906 0.08594 0.34687 0.12422l0.08478 0.02703c0.15539 0.04766 0.30882 0.08664 0.44851 0.11125l0.04992 0.0081c0.10804 0.01663 0.20687 0.02414 0.28906 0.0178 0.01002-6.14e-4 0.01938-1e-3 0.02906-0.0018l0.02616-0.0016c0.60311-0.0275 0.53249 0.28124 1.2052-0.04641 0.41538-0.20242 0.3839-0.70608 0.32418-1.0316-0.01317-0.01917-0.02535-0.03769-0.03769-0.05629z"/>
 <path d="m15.878 18.051-2.0322-0.67303c-0.04313 0.06414-0.095 0.12734-0.15836 0.18796-0.27242 0.26023-0.31835 0.36374-0.3089 0.40484 5e-3 0.02157 0.02688 0.03008 0.05727 0.03984 0.0232 0.0074 0.04945 0.01585 0.04945 0.04086 0 0.05336 0.05445 0.13265 0.09117 0.13265 0.01188 0 0.02484-1e-3 0.03953-0.0022 0.04664-0.0035 0.11039-0.0084 0.21234 0.01069 0.37671 0.0707 0.63194 0.07125 0.76022 0.0018 0.20594-0.11156 0.59007-0.15273 0.67108-0.10773 0.08789 0.04883 0.06523 0.41992 0.05774 0.44976-0.0024 0.0095-0.01086 0.04961-0.0221 0.10289-0.03758 0.17672-0.075 0.35171-0.0864 0.38023-0.01749 0.04383-0.10344 0.52468-0.03461 0.63163 0.04937 0.0768 0.09906 0.13562 0.1307 0.1725 0.06875-0.11672 0.1639-0.26554 0.3339-0.42632 0.22242-0.21007 0.09117-0.23617 0.23343-0.60811 0.04711-0.12328 0.09874-0.19502 0.12539-0.2564-2.05e-4 -2.05e-4 -6.15e-4 -4.1e-4 -8.2e-4 -8.19e-4 0.01325-0.03068 0.19059-0.36769 0.1689-0.38558-0.06563-0.02969-0.14506-0.04973-0.28771-0.09534z"/>
 <path d="m8.6685 14.762c0.11281 0.04211 0.25312 0.1014 0.28109 0.19851 0.019064 0.06586-0.014766 0.18304-0.087108 0.27796-0.24765 0.32492-0.094764 0.76811-0.00531 0.98811 0.22273-0.13054 0.44749-0.19554 0.7803-0.22328 0.39234-0.0325 0.64663 0.01297 0.83233 0.04625 0.0357 0.0064 0.06687 0.01156 0.09625 0.01617l0.55804-0.67468 0.06953-0.08414 0.94568-1.1434 0.07678-0.09281 0.68249-0.82514 0.06404-0.08031 7.7e-5 0.0026 0.62343-0.75374c-0.1443-0.02656-0.2682-0.01297-0.36757-0.03789-0.17695-0.04422-0.2764-0.19906-0.54179-0.37585-0.26539-0.17695-0.4771 0.0075-0.6828 0.08008-0.18789 0.06641-0.24601-0.08008-0.37866-0.21273-0.11984-0.12-0.3175-0.16734-0.66147-0.14289-0.29288 0.16336-0.29164 0.30171-0.27421 0.43577 0.0098 0.07508 0.01202 0.19195-0.03063 0.26882-0.07101 0.12765-0.2164 0.15132-0.33429 0.18179-0.08984 0.0232-0.15929 0.05492-0.22992 0.12234-0.08297 0.07922-0.07969 0.11304-0.084843 0.18843-0.00461 0.06687-0.00991 0.17398-0.07539 0.25742-0.092186 0.11719-0.2064 0.17297-0.31156 0.23773-0.046405 0.02851-0.071014 0.05804-0.12336 0.09539-0.059061 0.04234-0.032812 0.06258 0.030234 0.19382 0.060937 0.1268 0.13008 0.32539 0.056405 0.44265-0.062499 0.09922-0.23617 0.12773-0.44624 0.16078-0.26523 0.04172-0.55796 0.07336-0.64929 0.26914-0.019922 0.04289-0.023984 0.05422-0.012265 0.08266 0.024765 0.06047 0.10609 0.06547 0.19992 0.10047m-0.05435 0.10118c-0.10719-0.04-0.21796-0.08141-0.25375-0.16867-0.018828-0.04594-0.014219-0.09953 0.013592-0.15929 0.094842-0.20367 0.35976-0.26531 0.66146-0.31503 0.23147-0.03644 0.40717-0.0641 0.45358-0.13785 0.054218-0.08617-0.00383-0.20695-0.059999-0.3239-0.06164-0.12836-0.12547-0.26109-0.016796-0.33882 0.054139-0.0389 0.1032-0.06891 0.15054-0.09812 0.099842-0.06133 0.18594-0.1143 0.27078-0.2221 0.052889-0.06742 0.056951-0.12687 0.061326-0.18984 0.00539-0.07781 0.011491-0.16609 0.11304-0.26296 0.0832-0.07937 0.18453-0.10554 0.28257-0.13086 0.1139-0.02953 0.21234-0.05492 0.26945-0.15765 0.03211-0.05773 0.02422-0.11859 0.01499-0.18906-0.01602-0.12344-0.03453-0.27117 0.17984-0.43023-0.36718 0.04851-0.31936 0.19218-0.90834 0.18359-0.38343-0.0055-0.33164-0.05758-0.59702-0.05758-0.26539 0-0.38421 0.29578-0.77421 0.34386-0.31179 0.02887-0.29054-0.03652-0.53601 0.0043-0.26539 0.0443-0.087889 0.02687-0.53077 0.15765-1.3765 0.40632-1.2853 0.72139-1.5922 1.0033-0.13484 0.12398-0.25812 0.14773-0.41327 0.29335l-0.032198 0.03141c-0.054218 0.05547-0.11242 0.12648-0.1764 0.2225-0.26539 0.39804-0.46234 0.71968-0.55562 1.0532-0.12375 0.44226-0.17695 1.3158 0.11054 1.4816 0.22336 0.12883 0.49757 0.49483 0.71866 0.50726 0.22117 0.01234 0.88452 0.41046 1.5037 0.4546 0.32781 0.02344 0.53741 0.05297 0.66421 0.10023 0.089295-0.03437 0.155-0.0664 0.18156-0.09289 0.023125-0.0232 0.064218-0.09617 0.10765-0.17367 0.13929-0.24781 0.37781-0.67218 0.82725-0.95834-0.094607-0.22593-0.26421-0.75014 0.010545-1.1106 0.05789-0.07609 0.080936-0.13672 0.068358-0.18039-0.018828-0.06508-0.11969-0.10266-0.21718-0.13906"/>
 <path d="m15.146 19.669c-0.08039-0.125 0.01835-0.62858 0.0318-0.66194 0.01118-0.0282 0.05906-0.25367 0.08469-0.37484 0.01135-0.05391 0.01999-0.09445 0.02234-0.10398 0.0095-0.0375 0.01891-0.37906-0.04172-0.41265-0.06453-0.03586-0.43796-1e-3 -0.63921 0.10781-0.20336 0.11039-0.63796 0.02875-0.78069 2e-3 -0.09914-0.01852-0.16039-0.01397-0.20507-0.01055-0.01555 1e-3 -0.02929 0.0023-0.04203 0.0023-0.06297 0-0.12437-0.105-0.12437-0.16586-0.0022-0.0016-0.01671-0.0062-0.0264-0.0093-0.02946-0.0095-0.06984-0.02242-0.07937-0.06398-0.01086-0.04656 0.01047-0.14242 0.3182-0.43624 0.05906-0.05648 0.1082-0.11515 0.14906-0.17476l-0.84639-0.28031c-0.14726 0.0037-0.30648-0.02641-0.46304-0.05633-0.09867-0.01876-0.20086-0.03828-0.29867-0.04914-0.17586-0.01922-0.2275 0.02758-0.34015 0.13062-0.02719 0.02485-0.05711 0.05211-0.13433 0.11552-0.07722 0.06341-0.20518 0.15208-0.40542 0.24692-0.5096 0.2414-0.64155-0.01125-0.72882-0.17836-0.02758-0.05289-0.05367-0.10289-0.08422-0.12468-0.07812-0.05586-0.26851-0.09445-0.45179-0.06258-0.01446 0.0025-0.02961 0.0056-0.04508 0.0094l-0.0382 0.01063c-0.10812 0.03219-0.2325 0.09726-0.32398 0.22937-0.30249 0.43702-1.1128 0.82936-1.1472 0.84584-0.0068 0.0034-0.014139 0.0049-0.021483 0.0049-0.018439 0-0.036171-0.01032-0.044765-0.0282-0.012032-0.02476-0.00147-0.05445 0.023281-0.06632 0.0082-4e-3 0.82084-0.3975 1.1084-0.81272 0.1357-0.19617 0.33164-0.2664 0.47202-0.29094 0.2189-0.03789 0.4307 0.01116 0.52648 0.07976 0.05 0.03563 0.08133 0.0957 0.11468 0.15953 0.08609 0.16461 0.17484 0.335 0.54221 0.15461 0.36737-0.18039 0.48386-0.2864 0.57096-0.36601 0.11891-0.10883 0.19742-0.18125 0.41835-0.15609 0.08648 0.0095 0.66444 0.18796 0.75069 0.20429l-2.4737-0.81947-0.07344-0.02429c-0.18218-0.03265-0.40906-0.07094-0.76561-0.04109-0.074452 0.0063-0.14429 0.01727-0.21211 0.03047l-0.13422 0.03078c-0.47288 0.13039-0.77163 0.42609-0.97256 0.70522l-0.019537 0.02749c-0.090233 0.1289-0.16054 0.25297-0.21703 0.35359-0.056874 0.10125-0.097967 0.17445-0.14047 0.21687-0.087264 0.08727-0.35359 0.18187-0.62311 0.26015-0.042421 0.11976 0.026249 0.28562 0.30281 0.38234 0 0 0.14617 0.15508 0.42273 0.19828 0.074374 0.15187 0.14929 0.28062 0.20125 0.33187 0.059608 0.05882 0.13437 0.12523 0.23234 0.19164 0.12304-0.01827 0.21296-0.07828 0.28882-0.12992 0.067811-0.04601 0.12625-0.0857 0.19117-0.0857 0.088983 0 0.11851-0.03508 0.15914-0.08367 0.026093-0.03102 0.055624-0.06625 0.10594-0.09648 0.022344-0.01344 0.039374-0.0268 0.055702-0.03969 0.07367-0.05781 0.12226-0.09578 0.48694-0.0203 0.44452 0.09226 0.55062 0.50561 0.55171 0.50983 0.0021 0.0088-0.0032 0.0178-0.01211 0.02009-0.0012 2.05e-4 -0.0027 4.1e-4 -4e-3 4.1e-4 -0.0074 0-0.01438-0.0051-0.01618-0.01274-1e-3 -0.0038-0.10266-0.39726-0.52616-0.48515-0.34968-0.07266-0.39101-0.04-0.45968 0.01399-0.016485 0.01282-0.034921 0.0275-0.059218 0.04203-0.045546 0.02726-0.071874 0.05883-0.097577 0.08937-0.041093 0.04906-0.07992 0.09539-0.18453 0.09539-0.054765 0-0.10929 0.03703-0.1725 0.08-0.071718 0.04882-0.1557 0.10476-0.26718 0.12906 0.18781 0.11906 0.45577 0.2346 0.85788 0.30171-0.021798 0.17781-0.00109 0.41304 0.27164 0.37632 0.026641-0.0036 0.050156-0.0073 0.071718-0.01094 0.37687-0.21789 0.76639-0.46484 1.0049-0.67694 0.17437-0.155 0.3164-0.25117 0.44898-0.30984 0.0061-5e-3 0.01444-0.0064 0.02166-0.0095 0.22398-0.09289 0.42413-0.07953 0.71304-0.05961 0.15148 0.01047 0.32312 0.02219 0.541 0.02219 0.906 0 1.4473 0.20046 1.5422 0.34288 0.02508 0.0375 0.04289 0.08601 0.06773 0.15312 0.03195 0.08679 0.07625 0.20586 0.15757 0.3664 0.13757-0.0357 0.43249-0.12867 0.48054-0.27866 0.02547-0.07969 0.04977-0.14008 0.07141-0.19344 0.03469-0.08609 0.06219-0.15421 0.07726-0.25992 0.02367-0.16539-0.04664-0.27788-0.04742-0.27898-0.0049-0.0077-0.0027-0.01796 0.0052-0.02281 0.0077-0.0052 0.0178-0.0028 0.02289 0.0049 0.0031 0.0049 0.07766 0.12328 0.05219 0.30148-0.01563 0.10976-0.04383 0.17945-0.07945 0.26781-0.02117 0.05274-0.04539 0.11258-0.07039 0.19109-0.05258 0.16406-0.35039 0.2607-0.4964 0.29898 0.04187 0.08062 0.09187 0.17008 0.15523 0.2721 0.34882 0.13211 0.22179 0.3164 0.6614 0.3164 0.09844 0 0.14453-0.08461 0.22195-0.21765-1e-3 -0.0012-0.0018-0.0024-0.0032-0.0037-0.0318-0.03726-0.08507-0.09953-0.13758-0.18124"/>
</svg>
